<svg width="166" height="57" viewBox="0 0 166 57" fill="none" xmlns="http://www.w3.org/2000/svg">
<g clip-path="url(#clip0_159_2378)">
<path d="M61.1328 56.4359V-0.479492H90.1749C100.351 -0.479492 107.649 5.75124 107.649 14.9781C107.649 19.9765 106.172 23.438 101.514 26.5922C106.639 28.8242 110.445 33.6674 110.445 40.2831C110.445 50.7423 102.834 56.4359 92.2721 56.4359H61.1328ZM70.9199 22.9037H90.1778C94.2156 22.9037 97.4789 20.597 97.4789 15.7509C97.4789 10.9047 94.2185 8.75313 90.1778 8.75313H70.9199V22.9037ZM70.9199 47.209H92.275C96.8582 47.209 100.275 44.4398 100.275 39.5161C100.275 34.5924 96.8582 31.8261 92.275 31.8261H70.9199V47.209Z" fill="white"/>
<path d="M155.283 40.7456C157.844 45.2068 160.797 47.6686 166.001 48.5907V56.9731C156.837 56.5881 152.489 53.8189 147.439 45.8215L143.401 39.361H127.25V56.4359H117.463V-0.479492H144.721C156.138 -0.479492 165.612 6.36598 165.612 19.4393C165.612 28.4364 159.477 34.5149 153.107 36.9738L155.283 40.7427V40.7456ZM127.25 8.75026V30.4386H144.489C151.169 30.4386 155.364 26.5922 155.364 19.4422C155.364 12.2922 150.549 8.75026 144.724 8.75026H127.253H127.25Z" fill="white"/>
<path d="M51.01 56.4359H41.2258V26.279L9.85154 40.6853V56.4359H0.0673828V-0.479492H9.85154V30.4128L41.2258 16.018V-0.479492H51.01V56.4359Z" fill="white"/>
</g>
<defs>
<clipPath id="clip0_159_2378">
<rect width="166" height="57" fill="white"/>
</clipPath>
</defs>
</svg>
