<svg width="90" height="50" viewBox="0 0 90 50" fill="none" xmlns="http://www.w3.org/2000/svg">
<g clip-path="url(#clip0_117_2264)">
<path d="M33.1445 31.2863V0H48.8902C54.4072 0 58.3641 3.42503 58.3641 8.49703C58.3641 11.2446 57.5636 13.1474 55.0379 14.8813C57.8168 16.1082 59.8802 18.7705 59.8802 22.4071C59.8802 28.1566 55.7534 31.2863 50.0273 31.2863H33.1445ZM38.4508 12.8537H48.8918C51.081 12.8537 52.8503 11.5857 52.8503 8.9218C52.8503 6.2579 51.0826 5.07516 48.8918 5.07516H38.4508V12.8537ZM38.4508 26.2143H50.0289C52.5137 26.2143 54.3663 24.6921 54.3663 21.9855C54.3663 19.279 52.5137 17.7583 50.0289 17.7583H38.4508V26.2143Z" fill="white"/>
<path d="M84.1892 22.6614C85.5779 25.1137 87.1789 26.467 90.0003 26.9739V31.5816C85.0322 31.37 82.6747 29.8478 79.9367 25.4516L77.7475 21.9003H68.9908V31.2863H63.6846V0H78.4631C84.6532 0 89.7896 3.76295 89.7896 10.9493C89.7896 15.895 86.4633 19.2364 83.0097 20.5881L84.1892 22.6598V22.6614ZM68.9908 5.07359V16.9956H78.3373C81.9592 16.9956 84.2333 14.8813 84.2333 10.9509C84.2333 7.02059 81.6226 5.07359 78.4647 5.07359H68.9924H68.9908Z" fill="white"/>
<path d="M27.6556 31.2863H22.3509V14.7091L5.3408 22.6282V31.2863H0.0361328V0H5.3408V16.9814L22.3509 9.06866V0H27.6556V31.2863Z" fill="white"/>
<path d="M0 39.3315H3.48192C4.27613 39.3315 4.92565 39.4216 5.43205 39.6C5.93846 39.78 6.33792 40.0105 6.63044 40.2948C6.92296 40.579 7.12426 40.8996 7.23277 41.258C7.34129 41.6165 7.39633 41.9812 7.39633 42.3492C7.39633 43.0266 7.25479 43.6045 6.97171 44.083C6.68863 44.5615 6.22468 44.9341 5.57988 45.2041L7.81152 49.9998H6.27815L4.26984 45.5326C4.14088 45.5531 4.00248 45.5658 3.85308 45.5705C3.70367 45.5752 3.56999 45.5784 3.45204 45.5784H1.35408V50.0014H0V39.3331V39.3315ZM3.6156 44.3972C4.09212 44.3972 4.48372 44.3499 4.7904 44.2551C5.09707 44.1604 5.34083 44.0261 5.52012 43.8524C5.69941 43.6787 5.82208 43.4672 5.89127 43.2177C5.96047 42.9682 5.99507 42.6902 5.99507 42.3807C5.99507 42.0712 5.95575 41.8186 5.87555 41.588C5.79534 41.3591 5.66009 41.1617 5.46665 40.9975C5.27321 40.8332 5.01214 40.7085 4.68503 40.6232C4.35791 40.538 3.94115 40.4969 3.43474 40.4969H1.35094V44.3972H3.61246H3.6156Z" fill="white"/>
<path d="M16.8452 39.3315H23.721V40.5427H18.215V43.8888H23.4222V45.1141H18.215V48.7902H24.0041L23.7808 49.9998H16.8452V39.3315Z" fill="white"/>
<path d="M36.4736 39.3315H37.9173L42.0393 49.9998H40.5515L39.4349 47.0264H34.882L33.7654 49.9998H32.3374L36.4751 39.3315H36.4736ZM39.0182 45.831L37.1435 40.8854L35.2988 45.831H39.0197H39.0182Z" fill="white"/>
<path d="M50.8179 39.3315H52.1877V48.7744H57.6936L57.4861 49.9998H50.8179V39.3315Z" fill="white"/>
<path d="M67.6646 40.5569H64.1528V39.3315H72.5604V40.5569H69.0486V49.9998H67.6646V40.5569Z" fill="white"/>
<path d="M84.5397 45.4726L80.8345 39.3315H82.4119L85.2238 44.263L88.1113 39.3315H89.555L85.9237 45.4726V49.9998H84.5397V45.4726Z" fill="white"/>
</g>
<defs>
<clipPath id="clip0_117_2264">
<rect width="90" height="50" fill="white"/>
</clipPath>
</defs>
</svg>
