<svg width="24" height="24" viewBox="0 0 24 24" fill="none" xmlns="http://www.w3.org/2000/svg">
<path d="M12.3548 6.76875C12.5499 6.96383 12.5499 7.28097 12.3548 7.47605C12.1598 7.67113 11.8426 7.67113 11.6475 7.47605C11.4525 7.28097 11.4525 6.96383 11.6475 6.76875C11.8426 6.57367 12.1588 6.57367 12.3548 6.76875" stroke="white" stroke-width="1.5" stroke-linecap="round" stroke-linejoin="round"/>
<path d="M16.312 7.22498V7.22498C16.312 8.39646 15.7918 9.50593 14.8925 10.2562L13.4789 11.4347C12.9156 11.9049 12.4945 12.5222 12.2624 13.2185L12.0002 14.0008L11.7391 13.2175C11.507 12.5222 11.0859 11.9039 10.5226 11.4337L9.10905 10.2552C8.20867 9.50493 7.68945 8.39546 7.68945 7.22398V7.22398V7.24599C7.68845 4.55687 9.91638 2.99622 12.0002 2.99622C14.0841 2.99622 16.312 4.55687 16.312 7.24699" stroke="white" stroke-width="1.5" stroke-linecap="round" stroke-linejoin="round"/>
<path d="M5.99897 12C5.04557 12 4.22423 12.6733 4.03715 13.6087L3.03673 18.6108C2.78863 19.8483 3.73602 21.0037 4.99855 21.0037H19.0034C20.2659 21.0037 21.2133 19.8483 20.9652 18.6108L19.9648 13.6087C19.7777 12.6733 18.9564 12 18.003 12" stroke="white" stroke-width="1.5" stroke-linecap="round" stroke-linejoin="round"/>
</svg>
