<svg width="126" height="15" viewBox="0 0 126 15" fill="none" xmlns="http://www.w3.org/2000/svg">
<path d="M0 0H4.87469C5.98658 0 6.8959 0.12601 7.60487 0.37582C8.31384 0.627842 8.87308 0.950604 9.28261 1.34853C9.69214 1.74646 9.97396 2.19524 10.1259 2.69707C10.2778 3.1989 10.3549 3.70958 10.3549 4.22467C10.3549 5.17307 10.1567 5.98219 9.76039 6.65204C9.36408 7.32188 8.71456 7.8436 7.81184 8.22164L10.9361 14.9356H8.78942L5.97777 8.68147C5.79723 8.71021 5.60347 8.72789 5.39431 8.73452C5.18514 8.74116 4.99799 8.74558 4.83286 8.74558H1.89571V14.9378H0V0.0022095V0ZM5.06184 7.09197C5.72897 7.09197 6.27721 7.02565 6.70655 6.893C7.1359 6.76036 7.47717 6.57245 7.72817 6.32927C7.97917 6.08609 8.15091 5.78986 8.24778 5.44056C8.34466 5.09127 8.3931 4.70219 8.3931 4.26889C8.3931 3.83559 8.33806 3.48187 8.22577 3.15911C8.11348 2.83855 7.92413 2.56222 7.65331 2.3323C7.38249 2.10239 7.017 1.92774 6.55904 1.80836C6.10107 1.68899 5.5176 1.6315 4.80864 1.6315H1.89131V7.09197H5.05744H5.06184Z" fill="white"/>
<path d="M23.583 0H33.2091V1.69562H25.5007V6.38012H32.7908V8.09563H25.5007V13.2422H33.6054L33.2928 14.9356H23.583V0Z" fill="white"/>
<path d="M51.0631 0H53.0843L58.8551 14.9356H56.7722L55.209 10.7728H48.8349L47.2717 14.9356H45.2725L51.0653 0H51.0631ZM54.6255 9.09929L52.001 2.17534L49.4184 9.09929H54.6277H54.6255Z" fill="white"/>
<path d="M71.1455 0H73.0632V13.2201H80.7716L80.481 14.9356H71.1455V0Z" fill="white"/>
<path d="M94.731 1.71551H89.8145V0H101.585V1.71551H96.6685V14.9356H94.731V1.71551Z" fill="white"/>
<path d="M118.355 8.59746L113.168 0H115.376L119.313 6.90405L123.356 0H125.377L120.293 8.59746V14.9356H118.355V8.59746Z" fill="white"/>
</svg>
