<svg width="32" height="32" viewBox="0 0 32 32" fill="none" xmlns="http://www.w3.org/2000/svg">
<path fill-rule="evenodd" clip-rule="evenodd" d="M9.99467 4H22.0067C25.316 4 28 6.68267 28 9.99467V22.0067C28 25.316 25.3173 28 22.0053 28H9.99467C6.684 28 4 25.3173 4 22.0053V9.99467C4 6.684 6.68267 4 9.99467 4V4Z" stroke="black" stroke-width="1.5" stroke-linecap="round" stroke-linejoin="round"/>
<path d="M22.5996 8.95055C22.3516 8.95189 22.1503 9.15322 22.1503 9.40122C22.1503 9.64922 22.3529 9.85055 22.6009 9.85055C22.8489 9.85055 23.0503 9.64922 23.0503 9.40122C23.0516 9.15189 22.8489 8.95055 22.5996 8.95055" stroke="black" stroke-width="1.5" stroke-linecap="round" stroke-linejoin="round"/>
<path d="M19.3933 12.6058C21.2679 14.4804 21.2679 17.5195 19.3933 19.3941C17.5188 21.2686 14.4796 21.2686 12.6051 19.3941C10.7306 17.5195 10.7306 14.4804 12.6051 12.6058C14.4796 10.7313 17.5188 10.7313 19.3933 12.6058" stroke="black" stroke-width="1.5" stroke-linecap="round" stroke-linejoin="round"/>
</svg>
