<svg width="32" height="32" viewBox="0 0 32 32" fill="none" xmlns="http://www.w3.org/2000/svg">
<path fill-rule="evenodd" clip-rule="evenodd" d="M24.2728 7.68266C22.0782 5.48666 19.1595 4.27599 16.0502 4.27466C9.64084 4.27466 4.42617 9.48666 4.42484 15.8933C4.42217 17.932 4.95684 19.936 5.97551 21.7027L4.32617 27.724L10.4888 26.108C12.1942 27.036 14.1035 27.5227 16.0448 27.5227H16.0502C22.4568 27.5227 27.6715 22.3093 27.6742 15.9027C27.6755 12.7987 26.4675 9.87999 24.2728 7.68266Z" stroke="black" stroke-width="1.5" stroke-linecap="round" stroke-linejoin="round"/>
<path d="M17.4609 18.0799L18.0023 17.5425C18.4996 17.0492 19.2863 16.9865 19.8596 17.3892C20.4143 17.7785 20.9156 18.1279 21.3823 18.4532C22.1236 18.9679 22.2129 20.0239 21.5743 20.6612L21.0956 21.1399" stroke="black" stroke-width="1.5" stroke-linecap="round" stroke-linejoin="round"/>
<path d="M10.8594 10.9053L11.338 10.4266C11.9754 9.78928 13.0314 9.87861 13.546 10.6186C13.87 11.0853 14.2194 11.5866 14.61 12.1413C15.0127 12.7146 14.9514 13.5013 14.4567 13.9986L13.9194 14.5399" stroke="black" stroke-width="1.5" stroke-linecap="round" stroke-linejoin="round"/>
<path d="M21.095 21.14C19.1203 23.1054 15.8016 21.436 13.1816 18.8147" stroke="black" stroke-width="1.5" stroke-linecap="round" stroke-linejoin="round"/>
<path d="M13.1841 18.8186C10.5641 16.1973 8.89476 12.8799 10.8601 10.9053" stroke="black" stroke-width="1.5" stroke-linecap="round" stroke-linejoin="round"/>
<path d="M13.9199 14.54C14.3453 15.2107 14.8906 15.8747 15.5066 16.4907L15.5093 16.4934C16.1253 17.1094 16.7893 17.6547 17.4599 18.08" stroke="black" stroke-width="1.5" stroke-linecap="round" stroke-linejoin="round"/>
</svg>
